<?xml version="1.0" ?>
<!-- Uploaded to: SVG Repo, www.svgrepo.com, Generator: SVG Repo Mixer Tools -->
<svg width="800px" height="800px" viewBox="0 0 300 300" id="bull" version="1.1" xml:space="preserve" xmlns="http://www.w3.org/2000/svg" xmlns:xlink="http://www.w3.org/1999/xlink">
<g>
<path d="   M57.867,109.867h60v40H89.875c-11.05,0-22.583-8.581-25.763-19.18L57.867,109.867z" style="fill-rule:evenodd;clip-rule:evenodd;fill:#DDDDDD;stroke:#000000;stroke-width:7.7333;stroke-linecap:round;stroke-linejoin:round;stroke-miterlimit:10;"/>
<path d="   M249.867,109.867h-60v40h27.991c11.05,0,22.583-8.581,25.763-19.18L249.867,109.867z" style="fill-rule:evenodd;clip-rule:evenodd;fill:#DDDDDD;stroke:#000000;stroke-width:7.7333;stroke-linecap:round;stroke-linejoin:round;stroke-miterlimit:10;"/>
<path d="   M104.058,77.745c0,0-60.173-3.043-39.741-43.878c0,0-33.62,27.49-18.576,44.528c15.044,17.039,60.126,23.472,60.126,23.472" style="fill-rule:evenodd;clip-rule:evenodd;fill:#DDDDDD;stroke:#000000;stroke-width:7.7333;stroke-linecap:round;stroke-linejoin:round;stroke-miterlimit:10;"/>
<path d="   M203.676,77.745c0,0,60.172-3.043,39.74-43.878c0,0,33.62,27.49,18.576,44.528c-15.044,17.039-60.126,23.472-60.126,23.472" style="fill-rule:evenodd;clip-rule:evenodd;fill:#DDDDDD;stroke:#000000;stroke-width:7.7333;stroke-linecap:round;stroke-linejoin:round;stroke-miterlimit:10;"/>
<path d="   M87.113,93.726c1.521-13.177,13.501-23.86,26.754-23.86h79.998c13.255,0,25.229,10.641,26.754,23.86l9.247,80.14h-152   L87.113,93.726z" style="fill-rule:evenodd;clip-rule:evenodd;fill:#595959;stroke:#000000;stroke-width:8;stroke-linecap:round;stroke-linejoin:round;stroke-miterlimit:10;"/>
<path d="   M69.867,189.84c0-15.45,12.558-27.974,28.025-27.974h111.95c15.478,0,28.025,12.522,28.025,27.974v32.043   c0,28.71-23.272,51.984-52.006,51.984h-63.989c-28.722,0-52.006-23.274-52.006-51.984V189.84z" style="fill-rule:evenodd;clip-rule:evenodd;fill:#DDDDDD;stroke:#000000;stroke-width:7.7333;stroke-linecap:round;stroke-linejoin:round;stroke-miterlimit:10;"/>
<circle cx="189.867" cy="217.867" r="16" style="fill-rule:evenodd;clip-rule:evenodd;fill:#595959;stroke:#000000;stroke-width:8.1883;stroke-linecap:round;stroke-linejoin:round;stroke-miterlimit:10;"/>
<circle cx="117.867" cy="217.867" r="16" style="fill-rule:evenodd;clip-rule:evenodd;fill:#595959;stroke:#000000;stroke-width:8.1883;stroke-linecap:round;stroke-linejoin:round;stroke-miterlimit:10;"/>
<circle cx="129.867" cy="133.867" r="8" style="fill-rule:evenodd;clip-rule:evenodd;fill:#26BBEC;stroke:#000000;stroke-width:8;stroke-linecap:round;stroke-linejoin:round;stroke-miterlimit:10;"/>
<circle cx="177.867" cy="133.867" r="8" style="fill-rule:evenodd;clip-rule:evenodd;fill:#26BBEC;stroke:#000000;stroke-width:8;stroke-linecap:round;stroke-linejoin:round;stroke-miterlimit:10;"/>
</g>
<g/>
<g/>
<g/>
<g/>
<g/>
<g/>
<g/>
<g/>
<g/>
<g/>
<g/>
<g/>
<g/>
<g/>
<g/>
</svg>